<svg width="50" height="50" viewBox="0 0 50 50" fill="none" xmlns="http://www.w3.org/2000/svg">
<g clip-path="url(#clip0_406_1093)">
<path d="M25 50C38.8071 50 50 38.8071 50 25C50 11.1929 38.8071 0 25 0C11.1929 0 0 11.1929 0 25C0 38.8071 11.1929 50 25 50Z" fill="#F0F0F0"/>
<path d="M24.9998 0C15.0883 0 6.52422 5.76807 2.48047 14.1305H47.519C43.4754 5.76807 34.9112 0 24.9998 0V0Z" fill="#338AF3"/>
<path d="M24.9998 49.9996C34.9112 49.9996 43.4754 44.2315 47.5191 35.8691H2.48047C6.52422 44.2315 15.0883 49.9996 24.9998 49.9996Z" fill="#338AF3"/>
<path d="M32.4722 24.9997L29.4189 26.4359L31.0448 29.3929L27.7294 28.7586L27.3093 32.1078L25 29.6445L22.6906 32.1078L22.2706 28.7586L18.9552 29.3928L20.581 26.4358L17.5278 24.9997L20.5811 23.5635L18.9552 20.6066L22.2705 21.2408L22.6907 17.8916L25 20.3549L27.3094 17.8916L27.7294 21.2408L31.0449 20.6066L29.419 23.5636L32.4722 24.9997Z" fill="#FFDA44"/>
</g>
<defs>
<clipPath id="clip0_406_1093">
<rect width="50" height="50" fill="white"/>
</clipPath>
</defs>
</svg>
