<svg width="50" height="50" viewBox="0 0 50 50" fill="none" xmlns="http://www.w3.org/2000/svg">
<g clip-path="url(#clip0_406_1096)">
<path d="M50 25C50 38.807 38.807 50 25 50C11.193 50 0 38.807 0 25C0 25.0059 25 0.00283203 25 0C38.807 0 50 11.193 50 25Z" fill="#0052B4"/>
<path d="M24.9331 25.0005H25C25 24.9778 25 24.9562 25 24.9336C24.9777 24.956 24.9555 24.9782 24.9331 25.0005Z" fill="#F0F0F0"/>
<path d="M25 13.0435C25 8.64453 25 5.76201 25 0H24.9958C11.1906 0.00224609 0 11.1941 0 24.9999H13.0435V17.655L20.3884 24.9999H24.9332C24.9556 24.9776 24.9778 24.9554 25.0001 24.933C25.0001 23.2487 25.0001 21.7459 25.0001 20.3885L17.6551 13.0435H25Z" fill="#F0F0F0"/>
<path d="M12.6479 3.26074C8.73779 5.48721 5.48721 8.73779 3.26074 12.6479V24.9999H9.78252V9.78262V9.78252H24.9999C24.9999 7.72559 24.9999 5.76602 24.9999 3.26074H12.6479Z" fill="#D80027"/>
<path d="M24.9999 21.926L16.1178 13.044H13.0435C13.0435 13.0439 13.0435 13.044 13.0435 13.044L24.9998 25.0003H24.9999C24.9999 25.0003 24.9999 22.8807 24.9999 21.926Z" fill="#D80027"/>
<path d="M15.0774 29.3477L16.4495 32.2166L19.5479 31.5005L18.1604 34.362L20.652 36.3379L17.5497 37.0371L17.5584 40.2172L15.0774 38.2276L12.5966 40.2172L12.6053 37.0371L9.50293 36.3379L11.9946 34.362L10.6069 31.5005L13.7055 32.2166L15.0774 29.3477Z" fill="#F0F0F0"/>
<path d="M37.4298 34.7822L38.1158 36.2167L39.665 35.8586L38.9712 37.2894L40.2171 38.2773L38.6659 38.627L38.6702 40.217L37.4298 39.2222L36.1894 40.217L36.1937 38.627L34.6426 38.2773L35.8884 37.2894L35.1946 35.8586L36.7438 36.2167L37.4298 34.7822Z" fill="#F0F0F0"/>
<path d="M31.048 19.5645L31.734 20.999L33.2832 20.6408L32.5895 22.0716L33.8353 23.0596L32.2842 23.4092L32.2884 24.9992L31.048 24.0044L29.8076 24.9992L29.8118 23.4092L28.2607 23.0596L29.5065 22.0716L28.8128 20.6408L30.362 20.999L31.048 19.5645Z" fill="#F0F0F0"/>
<path d="M37.4298 10.8691L38.1158 12.3037L39.665 11.9456L38.9713 13.3764L40.217 14.3643L38.6659 14.714L38.6702 16.304L37.4298 15.3092L36.1894 16.304L36.1937 14.714L34.6426 14.3643L35.8883 13.3764L35.1946 11.9456L36.7438 12.3037L37.4298 10.8691Z" fill="#F0F0F0"/>
<path d="M43.0046 17.3906L43.6905 18.8252L45.2397 18.467L44.546 19.8978L45.7918 20.8857L44.2406 21.2354L44.2449 22.8254L43.0046 21.8307L41.7642 22.8254L41.7684 21.2354L40.2173 20.8857L41.4631 19.8978L40.7693 18.467L42.3185 18.8252L43.0046 17.3906Z" fill="#F0F0F0"/>
<path d="M39.0183 25L39.5578 26.6607H41.3041L39.8913 27.6872L40.4311 29.3479L39.0183 28.3215L37.6056 29.3479L38.1451 27.6872L36.7324 26.6607H38.4786L39.0183 25Z" fill="#F0F0F0"/>
</g>
<defs>
<clipPath id="clip0_406_1096">
<rect width="50" height="50" fill="white"/>
</clipPath>
</defs>
</svg>
