<svg width="50" height="50" viewBox="0 0 50 50" fill="none" xmlns="http://www.w3.org/2000/svg">
<g clip-path="url(#clip0_406_1107)">
<path d="M33.6955 1.55498C30.9872 0.550098 28.0579 0 24.9999 0C21.9419 0 19.0126 0.550098 16.3043 1.55498L14.1304 25L16.3043 48.445C19.0126 49.45 21.9419 50 24.9999 50C28.0579 50 30.9872 49.45 33.6955 48.445L35.8694 25L33.6955 1.55498Z" fill="#FFDA44"/>
<path d="M50.0002 24.9996C50.0002 14.2506 43.2158 5.08691 33.6958 1.55469V48.4448C43.2158 44.9123 50.0002 35.7488 50.0002 24.9996V24.9996Z" fill="#D80027"/>
<path d="M0 24.9996C0 35.7488 6.78437 44.9123 16.3044 48.4447V1.55469C6.78437 5.08691 0 14.2506 0 24.9996V24.9996Z" fill="black"/>
</g>
<defs>
<clipPath id="clip0_406_1107">
<rect width="50" height="50" fill="white"/>
</clipPath>
</defs>
</svg>
