<svg width="50" height="50" viewBox="0 0 50 50" fill="none" xmlns="http://www.w3.org/2000/svg">
<g clip-path="url(#clip0_406_1126)">
<path d="M25 50C38.8071 50 50 38.8071 50 25C50 11.1929 38.8071 0 25 0C11.1929 0 0 11.1929 0 25C0 38.8071 11.1929 50 25 50Z" fill="#F0F0F0"/>
<path d="M50.0001 24.9998C50.0001 15.0883 44.232 6.52422 35.8696 2.48047V47.519C44.232 43.4754 50.0001 34.9113 50.0001 24.9998V24.9998Z" fill="#D80027"/>
<path d="M0 24.9998C0 34.9113 5.76807 43.4754 14.1305 47.5191V2.48047C5.76807 6.52422 0 15.0883 0 24.9998Z" fill="#D80027"/>
<path d="M29.3477 28.2602L33.6954 26.0862L31.5216 24.9993V22.8254L27.1737 24.9993L29.3477 20.6515H27.1737L24.9998 17.3906L22.8259 20.6515H20.652L22.8259 24.9993L18.478 22.8254V24.9993L16.3042 26.0862L20.652 28.2602L19.565 30.4341H23.9129V33.6949H26.0867V30.4341H30.4346L29.3477 28.2602Z" fill="#D80027"/>
</g>
<defs>
<clipPath id="clip0_406_1126">
<rect width="50" height="50" fill="white"/>
</clipPath>
</defs>
</svg>
