<svg width="50" height="50" viewBox="0 0 50 50" fill="none" xmlns="http://www.w3.org/2000/svg">
<g clip-path="url(#clip0_406_1141)">
<path d="M50 25.0014C50 21.9434 49.4499 19.014 48.445 16.3058L25 15.2188L1.55498 16.3057C0.550098 19.014 0 21.9434 0 25.0014C0 28.0594 0.550098 30.9888 1.55498 33.697L25 34.784L48.445 33.6971C49.4499 30.9888 50 28.0594 50 25.0014Z" fill="#F0F0F0"/>
<path d="M25 50.0007C35.7491 50.0007 44.9127 43.2163 48.445 33.6963H1.55498C5.0873 43.2163 14.2509 50.0007 25 50.0007Z" fill="#0052B4"/>
<path d="M1.55498 16.3054H48.4451C44.9127 6.78535 35.7491 0.000976562 25 0.000976562C14.2509 0.000976562 5.0873 6.78535 1.55498 16.3054V16.3054Z" fill="#D80027"/>
<path d="M31.5218 17.392H27.1739L27.8986 11.9571L30.7971 9.7832L33.6956 11.9571V16.305L31.5218 17.392Z" fill="#338AF3"/>
<path d="M18.4782 17.392H22.8261L22.1014 11.9571L19.2028 9.7832L16.3044 11.9571V16.305L18.4782 17.392Z" fill="#338AF3"/>
<path d="M27.8986 17.392H22.1014V11.9571L25 9.7832L27.8986 11.9571V17.392Z" fill="#0052B4"/>
<path d="M16.3044 16.3057V28.2621C16.3044 31.1091 17.6796 33.6409 19.8007 35.2281L21.3225 34.8474L23.2428 36.7792C23.8106 36.8962 24.3982 36.9578 25.0001 36.9578C25.5987 36.9578 26.1834 36.897 26.7482 36.7812L28.9403 34.956L30.1993 35.2246C32.3195 33.6375 33.6957 31.1083 33.6957 28.2621V16.3057H16.3044Z" fill="#F0F0F0"/>
<path d="M16.3044 16.3057H19.7826V19.7839H16.3044V16.3057Z" fill="#D80027"/>
<path d="M23.2608 16.3057H26.7391V19.7839H23.2608V16.3057Z" fill="#D80027"/>
<path d="M30.2174 16.3057H33.6956V19.7839H30.2174V16.3057Z" fill="#D80027"/>
<path d="M19.7826 19.7842H23.2608V23.2624H19.7826V19.7842Z" fill="#D80027"/>
<path d="M26.7392 19.7842H30.2174V23.2624H26.7392V19.7842Z" fill="#D80027"/>
<path d="M16.3044 23.2607H19.7826V26.739H16.3044V23.2607Z" fill="#D80027"/>
<path d="M19.7826 26.7393H23.2608V30.2175H19.7826V26.7393Z" fill="#D80027"/>
<path d="M23.2608 23.2607H26.7391V26.739H23.2608V23.2607Z" fill="#D80027"/>
<path d="M30.2174 23.2607H33.6956V26.739H30.2174V23.2607Z" fill="#D80027"/>
<path d="M26.7392 26.7393H30.2174V30.2175H26.7392V26.7393Z" fill="#D80027"/>
<path d="M23.2608 30.2178H26.7391V33.696H23.2608V30.2178Z" fill="#D80027"/>
<path d="M19.7826 30.2178H16.5288C16.8272 31.5107 17.414 32.6938 18.2185 33.696H19.7826V30.2178Z" fill="#D80027"/>
<path d="M30.2174 33.696H31.7815C32.5861 32.6938 33.1727 31.5106 33.4711 30.2178H30.2174V33.696Z" fill="#D80027"/>
<path d="M19.7826 33.6963V35.214C20.7942 35.9752 21.9765 36.521 23.2608 36.7829V33.6963H19.7826Z" fill="#D80027"/>
<path d="M26.7392 33.6963V36.7829C28.0236 36.5212 29.2058 35.9752 30.2174 35.214V33.6963H26.7392Z" fill="#D80027"/>
</g>
<defs>
<clipPath id="clip0_406_1141">
<rect width="50" height="50" fill="white" transform="translate(0 0.000976562)"/>
</clipPath>
</defs>
</svg>
