<svg width="50" height="50" viewBox="0 0 50 50" fill="none" xmlns="http://www.w3.org/2000/svg">
<g clip-path="url(#clip0_406_1152)">
<path d="M0 25C0 11.193 11.193 0 25 0C38.807 0 50 11.193 50 25L25 27.1739L0 25Z" fill="#FFDA44"/>
<path d="M3.34521 37.4996C7.66797 44.9719 15.7465 49.9996 24.9999 49.9996C34.2533 49.9996 42.3318 44.9719 46.6546 37.4996L24.9999 35.8691L3.34521 37.4996Z" fill="#D80027"/>
<path d="M46.6547 37.5C48.7818 33.8229 50 29.5538 50 25H0C0 29.5538 1.21816 33.8229 3.34531 37.5H46.6547Z" fill="#0052B4"/>
<path d="M24.9998 33.6959C29.8023 33.6959 33.6954 29.8027 33.6954 25.0003C33.6954 20.1978 29.8023 16.3047 24.9998 16.3047C20.1974 16.3047 16.3042 20.1978 16.3042 25.0003C16.3042 29.8027 20.1974 33.6959 24.9998 33.6959Z" fill="#FFDA44"/>
<path d="M25.0002 30.4351C22.0034 30.4351 19.5654 27.997 19.5654 25.0003V21.7395C19.5654 18.7427 22.0035 16.3047 25.0002 16.3047C27.9969 16.3047 30.435 18.7428 30.435 21.7395V25.0003C30.435 27.9971 27.997 30.4351 25.0002 30.4351Z" fill="#338AF3"/>
<path d="M33.6956 11.9562H27.1738C27.1738 10.7556 26.2005 9.78223 24.9999 9.78223C23.7993 9.78223 22.826 10.7556 22.826 11.9562H16.3042C16.3042 13.1568 17.35 14.1301 18.5505 14.1301H18.4781C18.4781 15.3308 19.4514 16.304 20.6521 16.304C20.6521 17.5047 21.6253 18.4779 22.826 18.4779H27.1738C28.3745 18.4779 29.3478 17.5047 29.3478 16.304C30.5484 16.304 31.5217 15.3308 31.5217 14.1301H31.4493C32.6499 14.1301 33.6956 13.1567 33.6956 11.9562V11.9562Z" fill="black"/>
</g>
<defs>
<clipPath id="clip0_406_1152">
<rect width="50" height="50" fill="white"/>
</clipPath>
</defs>
</svg>
