<svg width="50" height="50" viewBox="0 0 50 50" fill="none" xmlns="http://www.w3.org/2000/svg">
<g clip-path="url(#clip0_406_1165)">
<path d="M25 50C38.8071 50 50 38.8071 50 25C50 11.1929 38.8071 0 25 0C11.1929 0 0 11.1929 0 25C0 38.8071 11.1929 50 25 50Z" fill="#F0F0F0"/>
<path d="M50.0002 24.9997C50.0002 14.2506 43.2158 5.08701 33.6958 1.55469V48.4448C43.2158 44.9124 50.0002 35.7488 50.0002 24.9997V24.9997Z" fill="#D80027"/>
<path d="M0 24.9997C0 35.7488 6.78447 44.9124 16.3044 48.4447V1.55469C6.78447 5.08701 0 14.2506 0 24.9997Z" fill="#0052B4"/>
</g>
<defs>
<clipPath id="clip0_406_1165">
<rect width="50" height="50" fill="white"/>
</clipPath>
</defs>
</svg>
