<svg width="50" height="50" viewBox="0 0 50 50" fill="none" xmlns="http://www.w3.org/2000/svg">
<g clip-path="url(#clip0_406_1171)">
<path d="M1.55498 33.6953C5.0873 43.2152 14.2509 49.9997 25 49.9997C35.7491 49.9997 44.9127 43.2152 48.445 33.6953L25 31.5215L1.55498 33.6953Z" fill="#FFDA44"/>
<path d="M25 0C14.2509 0 5.0873 6.78438 1.55498 16.3044L25 18.4782L48.445 16.3043C44.9127 6.78437 35.7491 0 25 0Z" fill="black"/>
<path d="M1.55498 16.3047C0.550098 19.013 0 21.9423 0 25.0003C0 28.0583 0.550098 30.9876 1.55498 33.6959H48.4451C49.45 30.9876 50 28.0583 50 25.0003C50 21.9423 49.45 19.013 48.445 16.3047H1.55498Z" fill="#D80027"/>
</g>
<defs>
<clipPath id="clip0_406_1171">
<rect width="50" height="50" fill="white"/>
</clipPath>
</defs>
</svg>
