<svg width="50" height="50" viewBox="0 0 50 50" fill="none" xmlns="http://www.w3.org/2000/svg">
<g clip-path="url(#clip0_406_1191)">
<path d="M25 50C38.8071 50 50 38.8071 50 25C50 11.1929 38.8071 0 25 0C11.1929 0 0 11.1929 0 25C0 38.8071 11.1929 50 25 50Z" fill="#F0F0F0"/>
<path d="M33.1198 18.4786H29.8489C29.876 18.8381 29.8913 19.2008 29.8913 19.5655C29.8913 21.9839 29.2868 24.3279 28.233 25.9965C27.9079 26.5111 27.3616 27.2379 26.6304 27.7281V18.4785H23.3695V27.7281C22.6384 27.2379 22.092 26.5112 21.7669 25.9965C20.713 24.3279 20.1086 21.9839 20.1086 19.5655C20.1086 19.2008 20.124 18.838 20.151 18.4786H16.8801C16.8591 18.8363 16.8477 19.1986 16.8477 19.5655C16.8477 26.2702 20.4285 31.5221 24.9998 31.5221C29.5711 31.5221 33.152 26.2702 33.152 19.5655C33.1522 19.1986 33.1407 18.8363 33.1198 18.4786V18.4786Z" fill="#D80027"/>
<path d="M10.3261 11.9565H13.5869V14.1305H16.8478V11.9565H20.1086V14.1305H23.3694V11.9565H26.6303V14.1305H29.8911V11.9565H33.152V14.1305H36.4128V11.9565H39.6736V14.1305H47.519C43.4756 5.76807 34.9114 0 25 0C15.0886 0 6.52442 5.76807 2.48067 14.1305H10.3261V11.9565Z" fill="#6DA544"/>
<path d="M39.6739 35.8691V38.0431H36.4131V35.8691H33.1522V38.0431H29.8914V35.8691H26.6306V38.0431H23.3697V35.8691H20.1089V38.0431H16.8481V35.8691H13.5869V38.0431H10.3261V35.8691H2.48067C6.52442 44.2315 15.0885 49.9996 25 49.9996C34.9115 49.9996 43.4756 44.2315 47.5193 35.8691H39.6739Z" fill="#D80027"/>
</g>
<defs>
<clipPath id="clip0_406_1191">
<rect width="50" height="50" fill="white"/>
</clipPath>
</defs>
</svg>
