<svg width="50" height="50" viewBox="0 0 50 50" fill="none" xmlns="http://www.w3.org/2000/svg">
<g clip-path="url(#clip0_406_1230)">
<path d="M25 50C38.8071 50 50 38.8071 50 25C50 11.1929 38.8071 0 25 0C11.1929 0 0 11.1929 0 25C0 38.8071 11.1929 50 25 50Z" fill="#F0F0F0"/>
<path d="M49.9996 24.9998C49.9996 15.0883 44.2315 6.52422 35.8691 2.48047V47.519C44.2315 43.4754 49.9996 34.9113 49.9996 24.9998V24.9998Z" fill="#D80027"/>
<path d="M0 24.9998C0 34.9113 5.76807 43.4754 14.1305 47.5191V2.48047C5.76807 6.52422 0 15.0883 0 24.9998Z" fill="#6DA544"/>
<path d="M18.4785 25.0001C18.4785 28.602 21.3984 31.5219 25.0003 31.5219C28.6021 31.5219 31.5221 28.602 31.5221 25.0001V22.8262H18.4785V25.0001Z" fill="#6DA544"/>
<path d="M33.6961 20.6524H27.1743C27.1743 19.4519 26.201 18.4785 25.0004 18.4785C23.7998 18.4785 22.8265 19.4519 22.8265 20.6524H16.3047C16.3047 21.8531 17.3505 22.8264 18.551 22.8264H18.4786C18.4786 24.0271 19.4519 25.0003 20.6525 25.0003C20.6525 26.201 21.6258 27.1742 22.8265 27.1742H27.1743C28.375 27.1742 29.3482 26.201 29.3482 25.0003C30.5489 25.0003 31.5222 24.0271 31.5222 22.8264H31.4497C32.6504 22.8264 33.6961 21.8531 33.6961 20.6524Z" fill="#FF9811"/>
</g>
<defs>
<clipPath id="clip0_406_1230">
<rect width="50" height="50" fill="white"/>
</clipPath>
</defs>
</svg>
