<svg width="50" height="50" viewBox="0 0 50 50" fill="none" xmlns="http://www.w3.org/2000/svg">
<g clip-path="url(#clip0_406_1283)">
<path d="M25 50C38.8071 50 50 38.8071 50 25C50 11.1929 38.8071 0 25 0C11.1929 0 0 11.1929 0 25C0 38.8071 11.1929 50 25 50Z" fill="#6DA544"/>
<path d="M14.1306 29.8916C14.1306 31.6925 15.5906 33.1524 17.3915 33.1524H27.1741C27.1741 34.6532 28.3907 35.8698 29.8915 35.8698H33.1523C34.6531 35.8698 35.8697 34.6532 35.8697 33.1524V29.8916H14.1306Z" fill="#F0F0F0"/>
<path d="M36.1415 14.1309V21.7395C36.1415 22.9383 35.1663 23.9135 33.9675 23.9135V27.1743C36.9643 27.1743 39.4023 24.7362 39.4023 21.7395V14.1309H36.1415Z" fill="#F0F0F0"/>
<path d="M12.7718 21.7395C12.7718 22.9383 11.7966 23.9135 10.5979 23.9135V27.1743C13.5947 27.1743 16.0327 24.7362 16.0327 21.7395V14.1309H12.7718V21.7395Z" fill="#F0F0F0"/>
<path d="M31.25 14.1309H34.5108V21.7395H31.25V14.1309Z" fill="#F0F0F0"/>
<path d="M26.3587 18.4787C26.3587 18.7784 26.1148 19.0222 25.8152 19.0222C25.5156 19.0222 25.2718 18.7783 25.2718 18.4787V14.1309H22.0109V18.4787C22.0109 18.7784 21.7671 19.0222 21.4675 19.0222C21.1679 19.0222 20.924 18.7783 20.924 18.4787V14.1309H17.6631V18.4787C17.6631 20.5765 19.3697 22.2831 21.4675 22.2831C22.2754 22.2831 23.0246 22.0292 23.6414 21.5979C24.2581 22.0291 25.0074 22.2831 25.8153 22.2831C25.978 22.2831 26.138 22.2717 26.2953 22.2517C26.0643 23.2037 25.2068 23.9135 24.1849 23.9135V27.1743C27.1816 27.1743 29.6196 24.7362 29.6196 21.7395V18.4787V14.1309H26.3588V18.4787H26.3587Z" fill="#F0F0F0"/>
<path d="M17.6631 23.9131H22.5544V27.1739H17.6631V23.9131Z" fill="#F0F0F0"/>
</g>
<defs>
<clipPath id="clip0_406_1283">
<rect width="50" height="50" fill="white"/>
</clipPath>
</defs>
</svg>
