<svg width="50" height="50" viewBox="0 0 50 50" fill="none" xmlns="http://www.w3.org/2000/svg">
<g clip-path="url(#clip0_406_1298)">
<path d="M25 50C38.8071 50 50 38.8071 50 25C50 11.1929 38.8071 0 25 0C11.1929 0 0 11.1929 0 25C0 38.8071 11.1929 50 25 50Z" fill="#F0F0F0"/>
<path d="M33.6954 25.0003C33.6954 27.1742 29.8022 32.609 24.9998 32.609C20.1974 32.609 16.3042 27.1742 16.3042 25.0003C16.3042 20.1978 20.1974 16.3047 24.9998 16.3047C29.8022 16.3047 33.6954 20.1978 33.6954 25.0003Z" fill="#D80027"/>
<path d="M33.6954 25C33.6954 29.8025 29.8022 33.6956 24.9998 33.6956C20.1974 33.6956 16.3042 29.8025 16.3042 25" fill="#0052B4"/>
<path d="M34.2163 32.6855L36.5217 30.3801L38.0587 31.9171L35.7533 34.2225L34.2163 32.6855Z" fill="black"/>
<path d="M30.3726 36.5293L32.678 34.2239L34.2149 35.7609L31.9095 38.0663L30.3726 36.5293Z" fill="black"/>
<path d="M38.8276 37.2969L41.133 34.9915L42.67 36.5284L40.3646 38.8338L38.8276 37.2969Z" fill="black"/>
<path d="M34.9839 41.1406L37.2893 38.8352L38.8263 40.3722L36.5209 42.6776L34.9839 41.1406Z" fill="black"/>
<path d="M36.522 34.9922L38.8274 32.6868L40.3644 34.2237L38.0589 36.5292L36.522 34.9922Z" fill="black"/>
<path d="M32.6792 38.834L34.9846 36.5286L36.5216 38.0655L34.2162 40.371L32.6792 38.834Z" fill="black"/>
<path d="M38.8379 17.3184L32.6901 11.1706L34.2271 9.6336L40.3749 15.7814L38.8379 17.3184Z" fill="black"/>
<path d="M32.6885 15.7812L30.3831 13.4758L31.92 11.9389L34.2254 14.2444L32.6885 15.7812Z" fill="black"/>
<path d="M36.5312 19.625L34.2258 17.3196L35.7627 15.7827L38.0681 18.0881L36.5312 19.625Z" fill="black"/>
<path d="M37.2988 11.1699L34.9934 8.86451L36.5304 7.32754L38.8358 9.63296L37.2988 11.1699Z" fill="black"/>
<path d="M41.1436 15.0137L38.8381 12.7083L40.3751 11.1713L42.6805 13.4767L41.1436 15.0137Z" fill="black"/>
<path d="M8.86279 34.9883L15.0106 41.1361L13.4736 42.673L7.32583 36.5252L8.86279 34.9883Z" fill="black"/>
<path d="M15.0103 36.5234L17.3157 38.8289L15.7788 40.3657L13.4734 38.0603L15.0103 36.5234Z" fill="black"/>
<path d="M11.1675 32.6816L13.4729 34.9871L11.9359 36.524L9.63052 34.2186L11.1675 32.6816Z" fill="black"/>
<path d="M13.4731 30.375L19.6209 36.5228L18.084 38.0598L11.9362 31.912L13.4731 30.375Z" fill="black"/>
<path d="M15.0098 8.85938L8.86197 15.0072L7.32501 13.4702L13.4728 7.32241L15.0098 8.85938Z" fill="black"/>
<path d="M17.3154 11.1641L11.1676 17.3119L9.63067 15.7749L15.7785 9.6271L17.3154 11.1641Z" fill="black"/>
<path d="M19.623 13.4727L13.4753 19.6204L11.9384 18.0836L18.0861 11.9358L19.623 13.4727Z" fill="black"/>
</g>
<defs>
<clipPath id="clip0_406_1298">
<rect width="50" height="50" fill="white"/>
</clipPath>
</defs>
</svg>
