<svg width="50" height="50" viewBox="0 0 50 50" fill="none" xmlns="http://www.w3.org/2000/svg">
<g clip-path="url(#clip0_406_1300)">
<path d="M0 25.0004C0 28.0584 0.550098 30.9877 1.55498 33.696L25 35.8699L48.445 33.696C49.4499 30.9877 50 28.0584 50 25.0004C50 21.9424 49.4499 19.0131 48.445 16.3048L25 14.1309L1.55498 16.3048C0.550098 19.0131 0 21.9424 0 25.0004H0Z" fill="#FFDA44"/>
<path d="M48.4447 16.3044C44.9124 6.78447 35.7488 0 24.9997 0C14.2506 0 5.08701 6.78447 1.55469 16.3044H48.4447Z" fill="#D80027"/>
<path d="M1.55469 33.6953C5.08701 43.2152 14.2506 49.9997 24.9997 49.9997C35.7488 49.9997 44.9124 43.2152 48.4447 33.6953H1.55469Z" fill="#D80027"/>
</g>
<defs>
<clipPath id="clip0_406_1300">
<rect width="50" height="50" fill="white"/>
</clipPath>
</defs>
</svg>
