<svg width="50" height="50" viewBox="0 0 50 50" fill="none" xmlns="http://www.w3.org/2000/svg">
<g clip-path="url(#clip0_406_1321)">
<path d="M25 50C38.8071 50 50 38.8071 50 25C50 11.1929 38.8071 0 25 0C11.1929 0 0 11.1929 0 25C0 38.8071 11.1929 50 25 50Z" fill="#D80027"/>
<path d="M25 36.9561C31.6034 36.9561 36.9565 31.6029 36.9565 24.9995C36.9565 18.3961 31.6034 13.043 25 13.043C18.3966 13.043 13.0435 18.3961 13.0435 24.9995C13.0435 31.6029 18.3966 36.9561 25 36.9561Z" fill="#F0F0F0"/>
<path d="M26.473 20.4297L28.5242 23.2563L31.8462 22.1792L29.7918 25.0034L31.8427 27.83L28.5218 26.7487L26.4675 29.5729L26.4696 26.0807L23.1488 24.9994L26.4709 23.9223L26.473 20.4297Z" fill="#D80027"/>
<path d="M27.7174 32.0656C23.8155 32.0656 20.6522 28.9023 20.6522 25.0004C20.6522 21.0984 23.8155 17.9352 27.7174 17.9352C28.934 17.9352 30.0789 18.2428 31.0783 18.7844C29.5104 17.2511 27.3664 16.3047 25 16.3047C20.1977 16.3047 16.3044 20.1979 16.3044 25.0003C16.3044 29.8027 20.1977 33.6959 25 33.6959C27.3664 33.6959 29.5105 32.7495 31.0783 31.2162C30.0789 31.758 28.934 32.0656 27.7174 32.0656Z" fill="#D80027"/>
</g>
<defs>
<clipPath id="clip0_406_1321">
<rect width="50" height="50" fill="white"/>
</clipPath>
</defs>
</svg>
