<svg width="50" height="50" viewBox="0 0 50 50" fill="none" xmlns="http://www.w3.org/2000/svg">
<g clip-path="url(#clip0_406_1339)">
<path d="M25 50C38.8071 50 50 38.8071 50 25C50 11.1929 38.8071 0 25 0C11.1929 0 0 11.1929 0 25C0 38.8071 11.1929 50 25 50Z" fill="#F0F0F0"/>
<path d="M50 25C50 38.807 38.807 50 25 50C11.193 50 0 38.807 0 25" fill="#496E2D"/>
<path d="M43.2628 17.3962C42.3688 14.8607 39.953 13.043 37.1117 13.043H31.5215C27.9196 13.043 24.9997 15.9629 24.9997 19.5647C24.9997 20.7415 25.313 21.8725 25.8582 22.8256C23.7823 22.8086 21.8611 22.8399 20.6519 22.8256C20.6519 20.3104 20.6519 17.1063 20.6519 16.4358L20.9087 16.179C22.0616 15.0261 21.6771 13.1046 21.6771 13.1046C21.6771 13.1046 19.7559 12.7203 18.6029 13.8732L17.2593 15.2169H15.7605C12.4588 15.2169 9.78232 17.8935 9.78232 21.1951H14.1302V26.0864C14.1302 26.8019 14.2744 27.4834 14.5351 28.1041L13.0432 29.3473H10.8692V27.1733H8.69531V31.5212H18.4779V35.869H16.304V38.043H20.6519V33.6951L22.6445 31.3038H27.3548L29.3475 33.6951V35.869H27.1735V38.043H35.8691V26.0863C35.8691 24.2854 37.3291 22.8255 39.13 22.8255C39.1763 22.8255 39.2222 22.8271 39.2681 22.829C39.178 22.4806 39.13 22.1152 39.13 21.7386C39.1302 19.4096 40.9615 17.5084 43.2628 17.3962V17.3962ZM31.5215 35.8689V31.3037H31.7026L33.6953 33.695V35.8689H31.5215Z" fill="#D80027"/>
</g>
<defs>
<clipPath id="clip0_406_1339">
<rect width="50" height="50" fill="white"/>
</clipPath>
</defs>
</svg>
